<svg width="704" height="261" viewBox="0 0 704 261" fill="none" xmlns="http://www.w3.org/2000/svg">
<g clip-path="url(#clip0_890_4338)">
<path d="M698.856 107.577H683.365L669.794 158.122H638.067L651.639 107.577H636.147L641.29 88.6078H656.781L661.862 69.6384H693.589L688.509 88.6078H704L698.856 107.577Z" fill="#111111"/>
<path d="M616.382 158.122H584.717L596.8 113.2C597.255 111.695 597.505 110.137 597.544 108.566C597.544 104.653 595.458 102.696 591.286 102.696C585.667 102.696 581.908 106.218 580.008 113.262L567.924 158.122H536.197L559.992 69.6384H591.719L586.019 90.9559C590.976 88.9786 597.73 87.99 606.281 87.99C621.608 87.99 629.272 93.9012 629.271 105.724C629.201 109.24 628.659 112.731 627.66 116.105L616.382 158.122Z" fill="#111111"/>
<path d="M530.305 152.314C524.522 173.981 508.266 184.814 481.538 184.815C455.223 184.815 442.044 178.409 442.003 165.598C442.003 164.77 442.065 163.944 442.189 163.126H479.121C478.928 163.852 478.824 164.6 478.812 165.351C478.894 168.44 481.186 169.985 485.69 169.985C491.143 169.985 494.799 166.504 496.658 159.542L497.649 155.774C492.583 157.779 487.175 158.786 481.724 158.74C460.201 158.74 449.419 151.51 449.377 137.051C449.431 133.416 449.951 129.802 450.926 126.299L452.476 120.553C458.3 98.8444 474.37 87.9901 500.686 87.99C506.303 87.99 511.096 89.0405 515.062 91.1413L515.743 88.6079H547.47L530.305 152.314ZM503.66 133.467L509.051 113.385C509.502 111.901 509.752 110.363 509.794 108.813C509.794 104.859 507.708 102.882 503.536 102.881C497.959 102.881 494.22 106.383 492.32 113.385L486.929 133.467C486.515 134.958 486.286 136.494 486.247 138.04C486.247 141.994 488.333 143.972 492.505 143.972C498.083 143.972 501.801 140.47 503.66 133.467Z" fill="#111111"/>
<path d="M456.132 83.9118H424.405L428.247 69.6384H459.973L456.132 83.9118ZM436.178 158.122H404.452L423.165 88.6078H454.893L436.178 158.122Z" fill="#111111"/>
<path d="M406.313 128.029H351.721L350.296 133.344C349.841 134.849 349.591 136.407 349.552 137.978C349.552 141.891 351.638 143.848 355.811 143.848C361.347 143.848 364.9 140.964 366.469 135.197H403.401C395.345 150.892 378.16 158.74 351.846 158.74C325.86 158.74 312.868 151.057 312.868 135.692C312.92 132.491 313.4 129.312 314.294 126.237L315.78 120.491C321.605 98.8238 339.947 87.99 370.807 87.99C396.833 87.99 409.846 95.6106 409.846 110.852C409.798 114.138 409.297 117.402 408.359 120.553L406.313 128.029ZM371.798 115.733L372.48 113.262C372.902 111.794 373.131 110.278 373.162 108.751C373.245 104.715 371.179 102.696 366.965 102.696C361.388 102.696 357.65 106.218 355.749 113.262L355.067 115.733H371.798Z" fill="#111111"/>
<path d="M315.223 103.932C310.351 103.101 305.417 102.688 300.475 102.696C292.006 102.696 286.429 107.66 283.744 117.587L272.837 158.122H241.111L259.825 88.6078H291.552L290.932 90.9559C296.201 88.9819 301.786 87.977 307.415 87.99C313.116 87.99 317.124 88.0724 319.436 88.2372L315.223 103.932Z" fill="#111111"/>
<path d="M252.386 88.6078H208.638L204.363 104.426H241.914L236.832 123.333H199.281L189.924 158.122H152.001L170.714 88.6078H202.937L175.796 69.6384H257.468L252.386 88.6078Z" fill="#111111"/>
<path d="M148.282 158.121H101.064L92.265 139.337L70.8246 158.121L35.4419 158.059L81.8547 117.525L68.0982 88.6072H93.7522L59.175 69.6378H106.332L115.255 88.3601L136.757 69.6378L172.078 69.576L125.665 110.234L148.282 158.121Z" fill="#0020DD"/>
<path d="M31.6648 158.122L0 158.06L18.6518 88.6078L55.4599 69.6384L31.6648 158.122Z" fill="#0020DD"/>
<path fill-rule="evenodd" clip-rule="evenodd" d="M35.0771 181.728C292.194 320.365 594.328 251.047 703.408 171.249C542.385 243.242 332.733 263.544 71.2871 181.34L35.0771 181.728Z" fill="#0020DD"/>
<path fill-rule="evenodd" clip-rule="evenodd" d="M694.098 43.3513C561.988 -26.6307 310.907 -2.30449 243.851 48.838C337.929 6.66709 565.062 10.4678 664.144 51.581L694.098 43.3513Z" fill="#0020DD"/>
</g>
<defs>
<clipPath id="clip0_890_4338">
<rect width="704" height="261" fill="white"/>
</clipPath>
</defs>
</svg>
