<svg width="35" height="35" viewBox="0 0 35 35" fill="none" xmlns="http://www.w3.org/2000/svg">
<g clip-path="url(#clip0_437_337)">
<path d="M27.2678 16.8296C26.4016 16.7432 24.4957 16.7432 24.4957 15.5302C24.4957 13.8847 26.9211 11.719 30.8192 9.38004C32.0317 8.6002 34.5446 7.38777 34.5446 5.74168C34.5446 4.44231 33.5914 3.48965 31.5991 3.74942C29.6932 4.00918 26.7478 5.30856 22.8502 8.6002C18.7787 11.9788 14.9675 17.6094 14.9675 23.1531C14.9675 28.7837 18.7787 34.4143 24.9294 34.4143C29.8666 34.4143 34.1114 30.6896 34.1114 25.5785C34.1109 21.6804 31.4257 17.1763 27.2678 16.8296Z" fill="#0020DD"/>
<path d="M15.0905 14.3937C14.379 14.0218 13.5986 13.7785 12.7564 13.7085C11.8902 13.6221 9.98432 13.6221 9.98432 12.4091C9.98432 10.7636 12.4097 8.59793 16.3078 6.25895C17.5208 5.4791 20.0326 4.26668 20.0326 2.62059C20.0326 1.32121 19.0794 0.368556 17.0871 0.628321C15.1813 0.888087 12.2358 2.18746 8.33822 5.4791C4.26729 8.8577 0.455566 14.4883 0.455566 20.0325C0.455566 25.6632 4.26674 31.2938 10.4174 31.2938C11.8634 31.2938 13.2492 30.9722 14.4867 30.392C13.2732 28.1979 12.6263 25.6593 12.6263 23.1536C12.6268 20.0593 13.6232 17.0586 15.0905 14.3937Z" fill="#0020DD"/>
</g>
<defs>
<clipPath id="clip0_437_337">
<rect width="35" height="35" fill="white"/>
</clipPath>
</defs>
</svg>
