<svg width="63" height="63" viewBox="0 0 63 63" fill="none" xmlns="http://www.w3.org/2000/svg">
<path d="M13.9452 33.5312H11.8937C10.9991 33.5323 10.1414 33.8881 9.50879 34.5208C8.87618 35.1534 8.52033 36.0111 8.51929 36.9057V51.1353C8.52033 52.03 8.87618 52.8877 9.50879 53.5203C10.1414 54.1529 10.9991 54.5087 11.8937 54.5098H13.9452C14.8398 54.5087 15.6975 54.1529 16.3301 53.5203C16.9627 52.8877 17.3186 52.03 17.3196 51.1353V36.9057C17.3186 36.0111 16.9627 35.1534 16.3301 34.5208C15.6975 33.8881 14.8398 33.5323 13.9452 33.5312ZM15.5969 51.1353C15.5964 51.5732 15.4222 51.9931 15.1126 52.3027C14.8029 52.6124 14.3831 52.7866 13.9452 52.7871H11.8937C11.4558 52.7866 11.036 52.6124 10.7263 52.3027C10.4167 51.9931 10.2425 51.5732 10.2419 51.1353V36.9057C10.2425 36.4678 10.4167 36.0479 10.7263 35.7383C11.036 35.4286 11.4558 35.2544 11.8937 35.2539H13.9452C14.3831 35.2544 14.8029 35.4286 15.1126 35.7383C15.4222 36.0479 15.5964 36.4678 15.5969 36.9057V51.1353Z" fill="#0020DD"/>
<path d="M26.3414 37.1252H24.2904C23.3962 37.1269 22.5391 37.4831 21.9069 38.1156C21.2748 38.7481 20.9191 39.6054 20.918 40.4997V51.1354C20.9191 52.03 21.2751 52.8877 21.9078 53.5203C22.5405 54.1529 23.3982 54.5088 24.2929 54.5098H26.3438C27.2386 54.5089 28.0965 54.1531 28.7293 53.5205C29.3621 52.8879 29.7181 52.0301 29.7193 51.1354V40.4997C29.7181 39.6045 29.3617 38.7463 28.7284 38.1137C28.0951 37.481 27.2366 37.1255 26.3414 37.1252ZM27.9941 51.1354C27.9935 51.5734 27.8191 51.9933 27.5093 52.303C27.1994 52.6126 26.7794 52.7868 26.3414 52.7871H24.2904C23.8529 52.786 23.4336 52.6115 23.1244 52.3019C22.8152 51.9924 22.6413 51.5729 22.6406 51.1354V40.4997C22.6413 40.0617 22.8156 39.6419 23.1253 39.3322C23.435 39.0226 23.8549 38.8484 24.2929 38.8479H26.3438C26.7819 38.8483 27.2019 39.0224 27.5117 39.3321C27.8216 39.6417 27.996 40.0616 27.9966 40.4997L27.9941 51.1354Z" fill="#0020DD"/>
<path d="M38.7386 30.4664H36.6867C35.7919 30.4676 34.9342 30.8236 34.3016 31.4564C33.6689 32.0892 33.3132 32.9471 33.3123 33.8419V51.1349C33.3133 52.0295 33.6692 52.8872 34.3018 53.5198C34.9344 54.1524 35.7921 54.5083 36.6867 54.5093H38.7386C39.6333 54.5083 40.491 54.1524 41.1236 53.5198C41.7562 52.8872 42.112 52.0295 42.1131 51.1349V33.8423C42.1123 32.9475 41.7566 32.0895 41.1239 31.4566C40.4913 30.8237 39.6335 30.4676 38.7386 30.4664ZM40.3904 51.1349C40.3899 51.5728 40.2157 51.9926 39.906 52.3023C39.5964 52.6119 39.1765 52.7861 38.7386 52.7866H36.6867C36.2488 52.7861 35.8289 52.6119 35.5193 52.3023C35.2096 51.9926 35.0354 51.5728 35.0349 51.1349V33.8423C35.035 33.4042 35.2091 32.984 35.5188 32.674C35.8285 32.364 36.2485 32.1896 36.6867 32.1891H38.7386C39.1767 32.1896 39.5967 32.3639 39.9064 32.6738C40.2161 32.9837 40.3901 33.4038 40.3904 33.8419V51.1349Z" fill="#0020DD"/>
<path d="M51.1354 21.4624H49.0834C48.1887 21.4634 47.3308 21.8194 46.6981 22.452C46.0654 23.0847 45.7095 23.9426 45.7085 24.8373V51.1354C45.7097 52.0301 46.0656 52.8878 46.6983 53.5204C47.331 54.153 48.1887 54.5088 49.0834 54.5098H51.1354C52.03 54.5088 52.8877 54.1529 53.5203 53.5203C54.1529 52.8877 54.5088 52.03 54.5098 51.1354V24.8373C54.5088 23.9427 54.1529 23.0849 53.5203 22.4522C52.8877 21.8195 52.03 21.4636 51.1354 21.4624ZM52.7871 51.1354C52.7866 51.5733 52.6124 51.9932 52.3028 52.3028C51.9931 52.6125 51.5733 52.7867 51.1354 52.7872H49.0834C48.6455 52.7867 48.2256 52.6125 47.9158 52.3028C47.6061 51.9932 47.4318 51.5734 47.4312 51.1354V24.8373C47.4317 24.3993 47.6059 23.9793 47.9157 23.6696C48.2254 23.3598 48.6454 23.1856 49.0834 23.1851H51.1354C51.5733 23.1857 51.9932 23.36 52.3028 23.6697C52.6124 23.9795 52.7866 24.3994 52.7871 24.8373V51.1354Z" fill="#0020DD"/>
<path d="M12.9194 27.1575C13.4805 27.157 14.0322 27.0131 14.522 26.7394C15.0118 26.4658 15.4235 26.0714 15.718 25.5938L22.0259 27.4641C22.0259 27.4892 22.0205 27.5133 22.0205 27.5379C22.0171 28.0092 22.1149 28.4757 22.3071 28.9061C22.4992 29.3364 22.7815 29.7206 23.1346 30.0326C23.4878 30.3447 23.9038 30.5774 24.3546 30.7151C24.8053 30.8528 25.2803 30.8923 25.7476 30.8309C26.2149 30.7695 26.6636 30.6087 27.0635 30.3592C27.4634 30.1097 27.8051 29.7775 28.0657 29.3848C28.3263 28.9921 28.4997 28.5481 28.5742 28.0827C28.6488 27.6173 28.6226 27.1414 28.4977 26.6869L35.3932 22.6899C35.9216 23.2176 36.6139 23.5498 37.3562 23.6316C38.0985 23.7135 38.8465 23.5403 39.4772 23.1404C40.1079 22.7405 40.5837 22.1378 40.8262 21.4315C41.0688 20.7252 41.0637 19.9574 40.8117 19.2544L47.9883 14.2971C48.6042 14.8215 49.3898 15.104 50.1986 15.0921C51.0074 15.0802 51.7843 14.7746 52.3844 14.2322C52.9846 13.6899 53.3671 12.9479 53.4606 12.1444C53.5541 11.3409 53.3524 10.5308 52.8928 9.86514C52.4333 9.19944 51.7474 8.72353 50.963 8.52611C50.1786 8.32869 49.3491 8.42322 48.6292 8.79209C47.9093 9.16097 47.3481 9.77901 47.0502 10.531C46.7522 11.2831 46.7379 12.1178 47.0098 12.8796L39.8318 17.8384C39.2968 17.3867 38.6317 17.1174 37.9332 17.0697C37.2347 17.022 36.5392 17.1983 35.9478 17.5731C35.3564 17.9479 34.9 18.5015 34.6449 19.1535C34.3898 19.8056 34.3494 20.522 34.5294 21.1985L27.6349 25.1971C27.2838 24.8471 26.858 24.5812 26.3893 24.4195C25.9207 24.2578 25.4216 24.2044 24.9294 24.2634C24.4372 24.3224 23.9647 24.4922 23.5476 24.76C23.1305 25.0279 22.7795 25.3868 22.521 25.8098L16.2092 23.9395C16.2092 23.9139 16.2127 23.8903 16.2127 23.8632C16.2126 23.2119 16.0194 22.5753 15.6574 22.0338C15.2955 21.4923 14.7811 21.0702 14.1794 20.8211C13.5776 20.5719 12.9155 20.5067 12.2767 20.6339C11.6379 20.761 11.0511 21.0747 10.5906 21.5353C10.1301 21.9958 9.81649 22.5826 9.68946 23.2214C9.56243 23.8603 9.62768 24.5224 9.87695 25.1241C10.1262 25.7258 10.5483 26.2401 11.0899 26.602C11.6314 26.9638 12.2681 27.1575 12.9194 27.1575ZM50.1096 10.2129C50.3799 10.2129 50.6457 10.2826 50.8812 10.4153C51.1166 10.5481 51.3138 10.7394 51.4537 10.9708C51.5935 11.2021 51.6713 11.4656 51.6794 11.7358C51.6875 12.006 51.6257 12.2737 51.5 12.513C51.3744 12.7524 51.189 12.9552 50.9619 13.1018C50.7349 13.2485 50.4738 13.3341 50.204 13.3503C49.9341 13.3664 49.6647 13.3127 49.4217 13.1942C49.1788 13.0757 48.9705 12.8964 48.8171 12.6739C48.6351 12.4131 48.5382 12.1025 48.5396 11.7845C48.5397 11.368 48.7051 10.9685 48.9995 10.6739C49.2938 10.3792 49.6931 10.2134 50.1096 10.2129ZM37.7114 18.7819C37.9668 18.7823 38.2183 18.8449 38.444 18.9644C38.6697 19.0839 38.8629 19.2566 39.0069 19.4675C39.1888 19.7269 39.2848 20.0367 39.2815 20.3535C39.2819 20.6999 39.1675 21.0367 38.9563 21.3113C38.7451 21.5859 38.4489 21.7828 38.1139 21.8713C37.779 21.9597 37.4242 21.9348 37.1049 21.8004C36.7856 21.666 36.5198 21.4296 36.349 21.1282C36.2115 20.8933 36.1397 20.6257 36.1413 20.3535C36.1415 19.937 36.3069 19.5375 36.6013 19.2429C36.8956 18.9482 37.2949 18.7824 37.7114 18.7819ZM25.3181 25.9629C25.5942 25.9635 25.8651 26.0369 26.1037 26.1758C26.3422 26.3147 26.5398 26.5141 26.6766 26.7539C26.816 26.9898 26.889 27.259 26.8877 27.533C26.8652 27.9348 26.6898 28.3128 26.3973 28.5894C26.1049 28.8659 25.7177 29.02 25.3152 29.02C24.9127 29.02 24.5255 28.8659 24.2331 28.5894C23.9406 28.3128 23.7651 27.9348 23.7427 27.533C23.7421 27.3831 23.7633 27.2339 23.8057 27.09C23.9039 26.765 24.1039 26.4801 24.3762 26.2772C24.6484 26.0744 24.9786 25.9642 25.3181 25.9629ZM12.9194 22.2932C13.2302 22.2931 13.534 22.3851 13.7925 22.5577C14.0509 22.7303 14.2523 22.9757 14.3713 23.2628C14.4903 23.5499 14.5214 23.8658 14.4608 24.1706C14.4002 24.4754 14.2506 24.7554 14.0308 24.9751C13.8111 25.1949 13.5311 25.3445 13.2263 25.4051C12.9215 25.4657 12.6056 25.4346 12.3185 25.3156C12.0314 25.1966 11.786 24.9952 11.6134 24.7368C11.4409 24.4783 11.3488 24.1745 11.3489 23.8637C11.3494 23.4474 11.515 23.0482 11.8095 22.7538C12.1039 22.4593 12.5031 22.2937 12.9194 22.2932Z" fill="#0020DD"/>
</svg>
