<svg width="63" height="63" viewBox="0 0 63 63" fill="none" xmlns="http://www.w3.org/2000/svg">
<g clip-path="url(#clip0_437_143)">
<path d="M29.7368 18.0225C29.7368 17.794 29.8275 17.575 29.9891 17.4134C30.1506 17.2519 30.3697 17.1612 30.5981 17.1612H41.9898C42.2182 17.1612 42.4373 17.2519 42.5989 17.4134C42.7604 17.575 42.8511 17.794 42.8511 18.0225C42.8511 18.2509 42.7604 18.47 42.5989 18.6315C42.4373 18.7931 42.2182 18.8838 41.9898 18.8838H30.5981C30.3697 18.8838 30.1506 18.7931 29.9891 18.6315C29.8275 18.47 29.7368 18.2509 29.7368 18.0225ZM30.5981 23.0766H48.5893C48.8177 23.0766 49.0368 22.9859 49.1984 22.8244C49.3599 22.6628 49.4506 22.4437 49.4506 22.2153C49.4506 21.9869 49.3599 21.7678 49.1984 21.6063C49.0368 21.4447 48.8177 21.354 48.5893 21.354H30.5984C30.3699 21.354 30.1509 21.4447 29.9893 21.6063C29.8278 21.7678 29.737 21.9869 29.737 22.2153C29.737 22.4437 29.8278 22.6628 29.9893 22.8244C30.1509 22.9859 30.3699 23.0766 30.5984 23.0766H30.5981ZM48.5891 25.5425H30.5984C30.3699 25.5425 30.1509 25.6332 29.9893 25.7948C29.8278 25.9563 29.737 26.1754 29.737 26.4038C29.737 26.6323 29.8278 26.8513 29.9893 27.0129C30.1509 27.1744 30.3699 27.2651 30.5984 27.2651H48.5893C48.8177 27.2651 49.0368 27.1744 49.1984 27.0129C49.3599 26.8513 49.4506 26.6323 49.4506 26.4038C49.4506 26.1754 49.3599 25.9563 49.1984 25.7948C49.0368 25.6332 48.8177 25.5425 48.5893 25.5425H48.5891ZM48.5891 29.7315H30.5984C30.3699 29.7315 30.1509 29.8222 29.9893 29.9838C29.8278 30.1453 29.737 30.3644 29.737 30.5928C29.737 30.8213 29.8278 31.0403 29.9893 31.2019C30.1509 31.3634 30.3699 31.4542 30.5984 31.4542H48.5893C48.8177 31.4542 49.0368 31.3634 49.1984 31.2019C49.3599 31.0403 49.4506 30.8213 49.4506 30.5928C49.4506 30.3644 49.3599 30.1453 49.1984 29.9838C49.0368 29.8222 48.8177 29.7315 48.5893 29.7315H48.5891ZM57.5776 47.3657V55.3465C57.5762 56.6033 57.0763 57.8081 56.1877 58.6968C55.2991 59.5854 54.0942 60.0853 52.8375 60.0868H16.8907C15.634 60.0853 14.4291 59.5854 13.5405 58.6968C12.6519 57.8081 12.152 56.6033 12.1506 55.3465V34.6772L0.296606 24.4257C0.211006 24.3517 0.140822 24.2616 0.0900646 24.1605C0.0393074 24.0593 0.00897149 23.9492 0.000789942 23.8364C-0.00739161 23.7235 0.00674155 23.6102 0.042382 23.5028C0.0780224 23.3954 0.134472 23.2961 0.208505 23.2105L17.5052 3.21059C17.5792 3.12499 17.6694 3.05481 17.7705 3.00406C17.8717 2.95332 17.9818 2.923 18.0947 2.91484C18.2075 2.90668 18.3209 2.92084 18.4283 2.95651C18.5357 2.99218 18.635 3.04867 18.7205 3.12273L24.9171 8.48327L36.0799 3.39479C36.1828 3.34784 36.294 3.32163 36.4071 3.31766C36.5201 3.31369 36.6329 3.33204 36.7389 3.37165C36.8449 3.41127 36.942 3.47138 37.0247 3.54855C37.1075 3.62571 37.1742 3.71843 37.2211 3.82139L40.6049 11.2453H45.942C46.1704 11.2454 46.3895 11.3362 46.5512 11.4977L53.4225 18.369C53.584 18.5306 53.6748 18.7497 53.6748 18.9782V31.5228C55.6836 31.245 57.7241 31.7211 59.4025 32.8593C61.0809 33.9975 62.2781 35.7171 62.7632 37.6861C63.2482 39.6552 62.9867 41.7341 62.0291 43.5216C61.0715 45.3092 59.4856 46.6787 57.5776 47.3657ZM51.9516 31.9538V19.8398H47.4839C46.8467 19.839 46.2359 19.5856 45.7853 19.135C45.3348 18.6845 45.0814 18.0737 45.0806 17.4365V12.9685H27.2361V30.2843L30.4752 33.451C31.2093 34.1692 31.7884 34.6774 32.5585 34.6774H48.2771C49.2204 33.441 50.4943 32.4968 51.9516 31.9538ZM46.8034 17.4365C46.8036 17.6168 46.8753 17.7897 47.0028 17.9172C47.1303 18.0447 47.3032 18.1164 47.4835 18.1166H50.733L46.8034 14.1874V17.4365ZM36.0106 5.3201L25.1755 10.2592C25.143 10.2767 25.1094 10.292 25.0749 10.3051L13.5218 15.5715L19.0108 27.6144H22.9702C24.0415 27.6144 24.8616 28.102 25.5128 28.643V12.1069C25.5128 11.8784 25.6036 11.6594 25.7651 11.4978C25.9267 11.3363 26.1457 11.2456 26.3742 11.2456H38.7109L36.0106 5.3201ZM12.1506 32.3993V31.66C12.1523 30.5868 12.5796 29.5582 13.3388 28.7997C14.098 28.0412 15.127 27.6148 16.2002 27.6141H17.1174L11.597 15.5022C11.5501 15.3993 11.5239 15.2881 11.5199 15.1751C11.5159 15.062 11.5343 14.9493 11.5739 14.8433C11.6135 14.7373 11.6736 14.6402 11.7508 14.5575C11.8279 14.4747 11.9206 14.408 12.0236 14.3611L23.1927 9.26954L18.2448 4.98935L2.07537 23.6866L12.1506 32.3993ZM55.8546 47.7811C54.6975 47.9337 53.5212 47.8372 52.4045 47.4981C51.2877 47.159 50.2564 46.5851 49.3795 45.815C48.5026 45.0448 47.8004 44.0961 47.32 43.0325C46.8397 41.9688 46.5922 40.8148 46.5941 39.6477C46.5932 38.5308 46.8217 37.4255 47.2656 36.4005H32.5583C31.0258 36.4005 30.0112 35.4076 29.2702 34.6829L25.7945 31.2847C25.7788 31.2703 25.7635 31.2556 25.7489 31.2401L25.0572 30.5633C24.297 29.8229 23.7406 29.3369 22.9703 29.3369H16.2002C15.5838 29.3371 14.9927 29.5818 14.5565 30.0174C14.1204 30.4529 13.8748 31.0436 13.8737 31.66V55.3465C13.8746 56.1464 14.1927 56.9133 14.7583 57.4789C15.3239 58.0446 16.0908 58.3627 16.8907 58.3636H52.8375C53.6374 58.3628 54.4043 58.0446 54.9699 57.479C55.5356 56.9134 55.8537 56.1465 55.8546 55.3465V47.7811ZM61.2784 39.6477C61.2784 38.366 60.8984 37.113 60.1863 36.0472C59.4742 34.9815 58.4621 34.1508 57.2779 33.6603C56.0937 33.1698 54.7907 33.0414 53.5335 33.2915C52.2764 33.5415 51.1216 34.1587 50.2153 35.0651C49.309 35.9714 48.6917 37.1261 48.4417 38.3832C48.1916 39.6404 48.3199 40.9434 48.8104 42.1276C49.3009 43.3118 50.1316 44.3239 51.1973 45.036C52.263 45.7481 53.516 46.1282 54.7978 46.1282C56.5159 46.1263 58.1631 45.4429 59.3781 44.228C60.593 43.0131 61.2764 41.3659 61.2784 39.6477ZM59.1844 36.3912C59.1044 36.3112 59.0094 36.2477 58.9049 36.2044C58.8004 36.1611 58.6884 36.1389 58.5753 36.1389C58.4622 36.1389 58.3502 36.1611 58.2457 36.2044C58.1412 36.2477 58.0462 36.3112 57.9662 36.3912L53.2806 41.0768L51.6296 39.4257C51.468 39.2642 51.2489 39.1735 51.0205 39.1735C50.792 39.1735 50.5729 39.2642 50.4114 39.4257C50.2498 39.5873 50.1591 39.8064 50.1591 40.0348C50.1591 40.2633 50.2498 40.4824 50.4114 40.6439L52.6716 42.904C52.7516 42.984 52.8466 43.0475 52.9511 43.0908C53.0556 43.1341 53.1676 43.1563 53.2807 43.1563C53.3938 43.1563 53.5058 43.1341 53.6103 43.0908C53.7149 43.0475 53.8098 42.984 53.8898 42.904L59.1844 37.6093C59.2644 37.5293 59.3278 37.4344 59.3711 37.3299C59.4144 37.2254 59.4367 37.1134 59.4367 37.0002C59.4367 36.8871 59.4144 36.7751 59.3711 36.6706C59.3278 36.5661 59.2644 36.4711 59.1844 36.3912ZM51.2435 52.9856H18.4847C18.2562 52.9856 18.0371 53.0764 17.8756 53.2379C17.7141 53.3994 17.6233 53.6185 17.6233 53.847C17.6233 54.0754 17.7141 54.2945 17.8756 54.456C18.0371 54.6175 18.2562 54.7083 18.4847 54.7083H51.2435C51.472 54.7083 51.6911 54.6175 51.8526 54.456C52.0141 54.2945 52.1049 54.0754 52.1049 53.847C52.1049 53.6185 52.0141 53.3994 51.8526 53.2379C51.6911 53.0764 51.472 52.9856 51.2435 52.9856ZM18.4847 48.8251H26.8873C27.1157 48.8251 27.3348 48.7343 27.4963 48.5728C27.6579 48.4112 27.7486 48.1922 27.7486 47.9637C27.7486 47.7353 27.6579 47.5162 27.4963 47.3547C27.3348 47.1931 27.1157 47.1024 26.8873 47.1024H18.4847C18.2562 47.1024 18.0371 47.1931 17.8756 47.3547C17.7141 47.5162 17.6233 47.7353 17.6233 47.9637C17.6233 48.1922 17.7141 48.4112 17.8756 48.5728C18.0371 48.7343 18.2562 48.8251 18.4847 48.8251Z" fill="white"/>
</g>
<defs>
<clipPath id="clip0_437_143">
<rect width="63" height="63" fill="white"/>
</clipPath>
</defs>
</svg>
